<svg width="39" height="35" viewBox="0 0 39 35" fill="none" xmlns="http://www.w3.org/2000/svg">
<path d="M1.34427 2.15168C1.20916 1.30728 2.12752 0.693856 2.85581 1.14204L10.3389 5.74699C10.5992 5.90719 10.9175 5.94257 11.2067 5.84343C16.582 4.00047 22.418 4.00047 27.7933 5.84343C28.0825 5.94257 28.4008 5.90719 28.6611 5.74699L36.1442 1.14204C36.8725 0.693857 37.7908 1.30728 37.6557 2.15168L36 12.5C36.5419 21.9837 28.9991 30 19.5 30C10.0009 30 2.45808 21.9837 3 12.5L1.34427 2.15168Z" fill="white"/>
<path d="M1.25 28.1651C0.559644 26.9693 0.969332 25.4404 2.16506 24.75C3.36079 24.0596 4.88977 24.4693 5.58013 25.6651L8.08013 29.9952C8.77048 31.1909 8.36079 32.7199 7.16506 33.4103C5.96933 34.1006 4.44036 33.6909 3.75 32.4952L1.25 28.1651Z" fill="white"/>
<rect width="5" height="10" rx="2.5" transform="matrix(-0.866025 -0.5 -0.5 0.866025 39 26)" fill="white"/>
</svg>
